<svg width="64" height="64" viewBox="0 0 64 64" fill="none" xmlns="http://www.w3.org/2000/svg">
<g clip-path="url(#clip0_4454_208055)">
<path d="M32 64C49.6731 64 64 49.6731 64 32C64 14.3269 49.6731 0 32 0C14.3269 0 0 14.3269 0 32C0 49.6731 14.3269 64 32 64Z" fill="#32BA7C"/>
<path d="M23.8242 46.4352L40.2785 62.8895C53.9062 59.2554 64.0009 46.839 64.0009 31.9999C64.0009 31.697 64.0009 31.3942 64.0009 31.0914L51.0797 19.1797L23.8242 46.4352Z" fill="#0AA06E"/>
<path d="M32.8068 39.1686C34.22 40.5818 34.22 43.0045 32.8068 44.4178L29.8793 47.3452C28.4661 48.7585 26.0434 48.7585 24.6301 47.3452L11.8099 34.4241C10.3967 33.0108 10.3967 30.5881 11.8099 29.1749L14.7374 26.2474C16.1506 24.8342 18.5733 24.8342 19.9866 26.2474L32.8068 39.1686Z" fill="white"/>
<path d="M44.0103 16.8588C45.4236 15.4455 47.8463 15.4455 49.2595 16.8588L52.187 19.7862C53.6002 21.1995 53.6002 23.6222 52.187 25.0354L29.9788 47.1427C28.5655 48.5559 26.1428 48.5559 24.7296 47.1427L21.8021 44.2152C20.3889 42.802 20.3889 40.3793 21.8021 38.966L44.0103 16.8588Z" fill="white"/>
</g>
<defs>
<clipPath id="clip0_4454_208055">
<rect width="64" height="64" fill="white"/>
</clipPath>
</defs>
</svg>
